<svg xmlns="http://www.w3.org/2000/svg" width="384.009" height="464" viewBox="0 0 384.009 464">
  <g id="award" transform="translate(-39.995)">
    <g id="Group_2" data-name="Group 2">
      <g id="Group_1" data-name="Group 1">
        <path id="Path_1" data-name="Path 1" d="M422.32,403.1l-48.68-62.584A70.461,70.461,0,0,0,412.152,312c11.464-19.816,6.28-44,1.264-67.36A183.984,183.984,0,0,1,408,208a183.926,183.926,0,0,1,5.416-36.672c4.984-23.376,10.2-47.544-1.264-67.328-11.872-20.512-35.776-28.1-58.9-35.432A171.326,171.326,0,0,1,320,55.544a162.523,162.523,0,0,1-26.648-21.6C276.2,18.024,256.752,0,232,0s-44.2,18.024-61.36,33.936A162.563,162.563,0,0,1,144,55.544a171.282,171.282,0,0,1-33.248,12.992c-23.12,7.328-47.024,14.92-58.9,35.432-11.464,19.816-6.28,44-1.264,67.36A183.923,183.923,0,0,1,56,208a183.924,183.924,0,0,1-5.416,36.672C45.6,268.048,40.384,292.216,51.848,312A70.465,70.465,0,0,0,90.4,340.5L41.68,403.088a8,8,0,0,0,7.312,12.848l57.2-7.144,14.12,49.408a8,8,0,0,0,6.168,5.656A8.161,8.161,0,0,0,128,464a8,8,0,0,0,6.32-3.088L185.408,395.2A73.975,73.975,0,0,0,232,416a73.975,73.975,0,0,0,46.592-20.8l51.088,65.688A8,8,0,0,0,336,464a8.16,8.16,0,0,0,1.52-.144,8,8,0,0,0,6.168-5.656l14.12-49.4,57.2,7.144A8,8,0,0,0,422.32,403.1ZM131.36,438.648,119.688,397.8a8,8,0,0,0-8.68-5.736l-44.8,5.6,40.152-51.616,4.424,1.416A171.277,171.277,0,0,1,144,360.456a162.522,162.522,0,0,1,26.648,21.6L173.4,384.6ZM232,400c-18.48,0-34.024-14.4-50.488-29.664A176.343,176.343,0,0,0,152,346.6a185.494,185.494,0,0,0-36.424-14.4c-21.144-6.712-41.12-13.048-49.888-28.2-8.368-14.472-4.048-34.64.536-56A195.907,195.907,0,0,0,72,208a195.828,195.828,0,0,0-5.768-40c-4.584-21.352-8.9-41.52-.536-56,8.8-15.152,28.744-21.488,49.888-28.2A185.546,185.546,0,0,0,152,69.4a176.336,176.336,0,0,0,29.5-23.736C197.976,30.4,213.52,16,232,16s34.024,14.4,50.488,29.664A176.343,176.343,0,0,0,312,69.4a185.492,185.492,0,0,0,36.424,14.4c21.144,6.712,41.12,13.048,49.888,28.2,8.368,14.472,4.048,34.64-.536,56A195.908,195.908,0,0,0,392,208a195.827,195.827,0,0,0,5.768,40c4.584,21.352,8.9,41.52.536,56-8.8,15.152-28.744,21.488-49.888,28.2A185.549,185.549,0,0,0,312,346.6a176.336,176.336,0,0,0-29.5,23.736C266.024,385.6,250.48,400,232,400Zm121.032-7.936a8,8,0,0,0-8.68,5.736L332.64,438.648l-42.032-54.04,2.752-2.544A162.564,162.564,0,0,1,320,360.456a171.284,171.284,0,0,1,33.248-12.992l4.424-1.416,40.16,51.616Z" fill="#7aad7e"/>
      </g>
    </g>
    <g id="Group_4" data-name="Group 4">
      <g id="Group_3" data-name="Group 3">
        <path id="Path_2" data-name="Path 2" d="M232,64A144,144,0,1,0,376,208,144,144,0,0,0,232,64Zm0,272A128,128,0,1,1,360,208,128,128,0,0,1,232,336Z" fill="#7aad7e"/>
      </g>
    </g>
    <g id="Group_6" data-name="Group 6">
      <g id="Group_5" data-name="Group 5">
        <path id="Path_3" data-name="Path 3" d="M324.3,174.584A16,16,0,0,0,311.376,168H262.4l-15.2-46.616a16,16,0,0,0-30.4,0L201.64,168H152.624a16,16,0,0,0-9.424,28.936l39.648,28.8L167.7,272.352a16,16,0,0,0,24.624,17.888L232,261.448l39.656,28.8A16,16,0,0,0,296.28,272.36l-15.144-46.624,39.648-28.8A16,16,0,0,0,324.3,174.584Zm-57.28,41.632a8,8,0,0,0-2.9,8.952l16.944,52.144L236.7,245.088a8,8,0,0,0-9.4,0l-44.36,32.224,16.936-52.144a8,8,0,0,0-2.9-8.944L152.624,184h54.824a8,8,0,0,0,7.608-5.528L232,126.328l16.944,52.136a8,8,0,0,0,7.608,5.528l54.824.008Z" fill="#7aad7e"/>
      </g>
    </g>
  </g>
</svg>
