<svg xmlns="http://www.w3.org/2000/svg" width="390.324" height="470" viewBox="0 0 390.324 470">
  <g id="quality" transform="translate(-39.838 0)">
    <path id="Path_4" data-name="Path 4" d="M429.591,418.378,367.368,268.16a7.5,7.5,0,0,0-13.858,5.74l56.251,135.8-51.309-14.867a7.5,7.5,0,0,0-8.656,3.586l-25.769,46.793L263.67,299.5c69.663-13.434,122.447-74.853,122.447-148.378C386.118,67.792,318.327,0,235,0S83.881,67.792,83.881,151.119a150.325,150.325,0,0,0,29.9,90.133L40.409,418.378a7.5,7.5,0,0,0,9.017,10.074l60.533-17.541,30.4,55.207A7.5,7.5,0,0,0,146.927,470c.138,0,.277,0,.416-.011a7.5,7.5,0,0,0,6.515-4.619l58.136-140.353a7.5,7.5,0,0,0-13.858-5.74L145.971,445.213,120.2,398.42a7.5,7.5,0,0,0-8.657-3.586L60.239,409.7l64.4-155.469A150.72,150.72,0,0,0,235,302.237c4.491,0,8.933-.209,13.325-.594L316.143,465.37a7.5,7.5,0,0,0,6.514,4.618c.14.008.278.012.417.012a7.5,7.5,0,0,0,6.567-3.882l30.4-55.207,60.533,17.541a7.5,7.5,0,0,0,9.016-10.074ZM98.881,151.119C98.881,76.063,159.944,15,235,15S371.118,76.063,371.118,151.119,310.056,287.237,235,287.237,98.881,226.175,98.881,151.119Z" fill="#7aad7e"/>
    <path id="Path_5" data-name="Path 5" d="M321.659,122.961a7.5,7.5,0,0,0-5.892-5.079L265.3,109.413,241.651,64.034a7.5,7.5,0,0,0-13.3,0L204.7,109.413l-50.466,8.469a7.5,7.5,0,0,0-4.111,12.651l35.85,36.515-7.54,50.614a7.5,7.5,0,0,0,10.761,7.819L235,202.669l45.806,22.812a7.5,7.5,0,0,0,10.762-7.818l-7.539-50.614,35.85-36.516a7.5,7.5,0,0,0,1.78-7.572Zm-50.951,36.244a7.5,7.5,0,0,0-2.066,6.359l5.97,40.074-36.268-18.061a7.5,7.5,0,0,0-6.687,0l-36.268,18.061,5.97-40.074a7.5,7.5,0,0,0-2.066-6.359l-28.385-28.912,39.957-6.706a7.5,7.5,0,0,0,5.41-3.93L235,83.728l18.725,35.93a7.5,7.5,0,0,0,5.41,3.93l39.958,6.706L270.708,159.2Z" fill="#7aad7e"/>
    <path id="Path_6" data-name="Path 6" d="M348.612,158.684a7.5,7.5,0,0,0-8.42,6.45,106.119,106.119,0,1,1,0-28.03,7.5,7.5,0,1,0,14.869-1.97C347.121,75.2,295.506,30,235,30a121.118,121.118,0,1,0,0,242.237c60.506,0,112.121-45.2,120.062-105.134a7.5,7.5,0,0,0-6.45-8.419Z" fill="#7aad7e"/>
  </g>
</svg>
