<svg xmlns="http://www.w3.org/2000/svg" width="452.428" height="512.001" viewBox="0 0 452.428 512.001">
  <g id="timer" transform="translate(-29.786)">
    <g id="Group_18" data-name="Group 18">
      <g id="Group_17" data-name="Group 17">
        <path id="Path_12" data-name="Path 12" d="M368.411,463.073a10,10,0,0,0-13.838-2.922A196.49,196.49,0,0,1,247.053,492C138.28,492,49.786,403.506,49.786,294.733A196.262,196.262,0,0,1,83.418,184.524a10,10,0,0,0-16.579-11.188A217.3,217.3,0,0,0,365.49,476.911,10,10,0,0,0,368.411,463.073Z" fill="#7aad7e"/>
      </g>
    </g>
    <g id="Group_20" data-name="Group 20">
      <g id="Group_19" data-name="Group 19">
        <path id="Path_13" data-name="Path 13" d="M402.006,432.749a10,10,0,0,0-14.143.139l-.332.337a10,10,0,1,0,14.2,14.087l.414-.42A10,10,0,0,0,402.006,432.749Z" fill="#7aad7e"/>
      </g>
    </g>
    <g id="Group_22" data-name="Group 22">
      <g id="Group_21" data-name="Group 21">
        <path id="Path_14" data-name="Path 14" d="M442.512,163.889a10,10,0,0,0,14.142,0l16.658-16.658a30.484,30.484,0,0,0,0-43.057l-35.7-35.7a30.446,30.446,0,0,0-43.056,0L377.9,85.131a10,10,0,0,0,0,14.142L382.627,104l-11.982,11.982a214.756,214.756,0,0,0-84.588-35.037V64h22a10,10,0,0,0,10-10V10a10,10,0,0,0-10-10H186.053a10,10,0,0,0-10,10V54a10,10,0,0,0,10,10h22V80.967a215.962,215.962,0,0,0-80.46,32.262,10,10,0,1,0,11.011,16.7A196.413,196.413,0,0,1,247.056,97.468c108.773,0,197.267,88.493,197.267,197.267A196.761,196.761,0,0,1,414.7,398.752a10,10,0,1,0,16.985,10.562A217.491,217.491,0,0,0,425.8,171.145l11.982-11.982ZM266.055,78.3c-6.284-.541-12.619-.83-19-.83s-12.707.281-19,.828V64h38V78.3ZM218.054,44h-22V20h102V44h-80ZM413.533,155.125q-6.092-7.237-12.849-14.023-6.768-6.768-14.023-12.849l10.107-10.107,26.871,26.871Zm-9.692-58.192-.006,0-4.723-4.723,9.587-9.586a10.443,10.443,0,0,1,14.77,0l35.7,35.7a10.458,10.458,0,0,1,0,14.772l-9.586,9.585-4.714-4.714-.014-.015Z" fill="#7aad7e"/>
      </g>
    </g>
    <g id="Group_24" data-name="Group 24">
      <g id="Group_23" data-name="Group 23">
        <path id="Path_15" data-name="Path 15" d="M247.055,152.992a10,10,0,0,0-10,10v22a10,10,0,1,0,20,0v-22A10,10,0,0,0,247.055,152.992Z" fill="#7aad7e"/>
      </g>
    </g>
    <g id="Group_26" data-name="Group 26">
      <g id="Group_25" data-name="Group 25">
        <path id="Path_16" data-name="Path 16" d="M347.278,194.508a9.995,9.995,0,1,0,2.93,7.07A10.074,10.074,0,0,0,347.278,194.508Z" fill="#7aad7e"/>
      </g>
    </g>
    <g id="Group_28" data-name="Group 28">
      <g id="Group_27" data-name="Group 27">
        <path id="Path_17" data-name="Path 17" d="M378.8,284.733h-22a10,10,0,0,0,0,20h22a10,10,0,0,0,0-20Z" fill="#7aad7e"/>
      </g>
    </g>
    <g id="Group_30" data-name="Group 30">
      <g id="Group_29" data-name="Group 29">
        <path id="Path_18" data-name="Path 18" d="M347.278,380.815a9.995,9.995,0,1,0,2.93,7.07A10.074,10.074,0,0,0,347.278,380.815Z" fill="#7aad7e"/>
      </g>
    </g>
    <g id="Group_32" data-name="Group 32">
      <g id="Group_31" data-name="Group 31">
        <path id="Path_19" data-name="Path 19" d="M247.055,394.473a10,10,0,0,0-10,10v22a10,10,0,0,0,20,0v-22A10,10,0,0,0,247.055,394.473Z" fill="#7aad7e"/>
      </g>
    </g>
    <g id="Group_34" data-name="Group 34">
      <g id="Group_33" data-name="Group 33">
        <path id="Path_20" data-name="Path 20" d="M160.97,380.815a9.995,9.995,0,1,0,2.93,7.07A10.077,10.077,0,0,0,160.97,380.815Z" fill="#7aad7e"/>
      </g>
    </g>
    <g id="Group_36" data-name="Group 36">
      <g id="Group_35" data-name="Group 35">
        <path id="Path_21" data-name="Path 21" d="M137.314,284.733h-22a10,10,0,0,0,0,20h22a10,10,0,1,0,0-20Z" fill="#7aad7e"/>
      </g>
    </g>
    <g id="Group_38" data-name="Group 38">
      <g id="Group_37" data-name="Group 37">
        <path id="Path_22" data-name="Path 22" d="M160.97,194.508a9.995,9.995,0,1,0,2.93,7.07A10.076,10.076,0,0,0,160.97,194.508Z" fill="#7aad7e"/>
      </g>
    </g>
    <g id="Group_40" data-name="Group 40">
      <g id="Group_39" data-name="Group 39">
        <path id="Path_23" data-name="Path 23" d="M325.133,216.654a10,10,0,0,0-12.25-1.483l-82.548,49.974a26.337,26.337,0,0,0-2.989,1.908,33.984,33.984,0,1,0,47.317,47.489,23.913,23.913,0,0,0,1.989-3.105L326.616,228.9A10,10,0,0,0,325.133,216.654Zm-65.711,84.623-.826,1.364a13.993,13.993,0,1,1-19.446-19.452l1.356-.821a13.987,13.987,0,0,1,18.916,18.909Zm15.627-25.811a34.259,34.259,0,0,0-8.727-8.726l22.115-13.388Z" fill="#7aad7e"/>
      </g>
    </g>
    <g id="Group_42" data-name="Group 42">
      <g id="Group_41" data-name="Group 41">
        <path id="Path_24" data-name="Path 24" d="M247.055,121.5c-95.523,0-173.237,77.712-173.237,173.235S151.531,467.97,247.055,467.97s173.236-77.713,173.236-173.236S342.578,121.5,247.055,121.5Zm0,326.47c-84.494,0-153.236-68.741-153.236-153.235S162.56,141.5,247.055,141.5,400.29,210.24,400.29,294.734,331.549,447.969,247.055,447.969Z" fill="#7aad7e"/>
      </g>
    </g>
    <g id="Group_44" data-name="Group 44">
      <g id="Group_43" data-name="Group 43">
        <path id="Path_25" data-name="Path 25" d="M108.178,140.495a9.995,9.995,0,1,0,2.93,7.07A10.077,10.077,0,0,0,108.178,140.495Z" fill="#7aad7e"/>
      </g>
    </g>
  </g>
</svg>
